PathFileType	4	(X/Y/Z)	C:\Users\Basilio\Documents\Thesis Gigler\squatting_fais\c3dfiles\077\SLS_front_pre1\markers_experimental.trc
DataRate	CameraRate	NumFrames	NumMarkers	Units	OrigDataRate	OrigDataStartFrame	OrigNumFrames
200.000000	200.000000	4	60	mm	200.000000	2687	3071
Frame#	Time	FHD			LBHD			RBHD			C7			T10			CLAV			LSHO			LUUPA			LMUPA			LDUPA			LLEP			LMEP			LRAD			LUL			LRFIN			RSHO			RUPA1			RMUPA			RDUPA			RLEP			RMEP			RRAD			RUL			RUFIN			LASI			RASI			USACR			LSACR			RSACR			LTHI1			LTHI2			LTHI3			LTHI4			LLFC			LMFC			LTIB1			LTIB2			LTIB3			LTIB4			LLMAL			LHEE			LMT1			LMT2			LMT5			RTHI			RTHI2			RTHI3			RTHI4			RLFC			RMFC			RTIB1			RTIB2			RTIB3			RTIB4			RLMAL			RMMAL			RHEE			RMT1			RMT2			RMT5			
		X1	Y1	Z1	X2	Y2	Z2	X3	Y3	Z3	X4	Y4	Z4	X5	Y5	Z5	X6	Y6	Z6	X7	Y7	Z7	X8	Y8	Z8	X9	Y9	Z9	X10	Y10	Z10	X11	Y11	Z11	X12	Y12	Z12	X13	Y13	Z13	X14	Y14	Z14	X15	Y15	Z15	X16	Y16	Z16	X17	Y17	Z17	X18	Y18	Z18	X19	Y19	Z19	X20	Y20	Z20	X21	Y21	Z21	X22	Y22	Z22	X23	Y23	Z23	X24	Y24	Z24	X25	Y25	Z25	X26	Y26	Z26	X27	Y27	Z27	X28	Y28	Z28	X29	Y29	Z29	X30	Y30	Z30	X31	Y31	Z31	X32	Y32	Z32	X33	Y33	Z33	X34	Y34	Z34	X35	Y35	Z35	X36	Y36	Z36	X37	Y37	Z37	X38	Y38	Z38	X39	Y39	Z39	X40	Y40	Z40	X41	Y41	Z41	X42	Y42	Z42	X43	Y43	Z43	X44	Y44	Z44	X45	Y45	Z45	X46	Y46	Z46	X47	Y47	Z47	X48	Y48	Z48	X49	Y49	Z49	X50	Y50	Z50	X51	Y51	Z51	X52	Y52	Z52	X53	Y53	Z53	X54	Y54	Z54	X55	Y55	Z55	X56	Y56	Z56	X57	Y57	Z57	X58	Y58	Z58	X59	Y59	Z59	X60	Y60	Z60	

2688	13.435	-283.4269714355469	1853.0400390625	-1068.48876953125	-421.088592529297	1742.634033203125	-1138.875854492188	-428.0498962402345	1737.053466796875	-992.5320434570315	-464.9768676757814	1598.798095703125	-1076.494262695313	-474.2418212890626	1263.979858398438	-1050.694702148438	-301.0490112304688	1552.004760742188	-1067.987915039063	-314.4375000000001	1586.427490234375	-1240.203125	-138.6197814941407	1533.069702148438	-1330.985717773438	-111.69189453125	1563.21533203125	-1302.397705078125	-69.21776580810548	1528.533447265625	-1330.903198242188	-5.245420455932618	1536.459594726563	-1322.207885742188	-3.137538671493531	1466.239379882813	-1290.995361328125	279.6922912597657	1559.611083984375	-1182.243896484375	290.0957946777344	1566.064697265625	-1262.168090820313	380.1104431152344	1584.009033203125	-1187.710571289063	-312.9734802246094	1590.852294921875	-906.4902343750002	-153.1281280517578	1545.22314453125	-805.077331542969	-126.9925308227539	1571.688598632813	-837.7656860351565	-83.08221435546876	1543.208374023438	-805.725036621094	-17.49868774414063	1546.7783203125	-818.267761230469	-17.25031089782715	1473.355224609375	-845.7803344726565	nan	nan	nan	276.3267517089844	1569.660400390625	-859.430847167969	359.5650024414063	1575.40283203125	-942.2291259765627	-273.6996765136719	1064.858520507813	-1159.0888671875	-296.6069641113282	1111.765747070313	-885.1386718750002	-480.7269592285157	1150.890747070313	-1035.383666992188	-484.3811035156251	1120.09765625	-1061.580688476563	-492.1770935058595	1120.133056640625	-1006.904846191406	-327.2005615234376	845.4140625000002	-1192.796997070313	-295.3934326171876	768.3710937500002	-1185.214721679688	-246.1629486083985	772.9671630859377	-1183.84765625	-319.8534240722657	717.3195190429689	-1164.231811523438	-286.6789245605469	570.9946899414064	-1133.496459960938	-274.0101318359376	559.1528930664064	-1000.329406738281	-265.8963623046876	351.3161926269532	-1045.786987304688	-296.3706359863282	302.9332580566407	-1114.712768554688	-266.8832092285157	300.9868774414063	-1077.721435546875	-281.5764465332032	225.5429229736329	-1041.534423828125	-349.7987365722657	109.6602783203125	-1077.449829101563	-406.6612243652345	80.16878509521486	-1024.429077148438	-195.4576721191407	54.41212081909181	-1009.281372070313	-191.8045043945313	58.65724182128908	-1051.859497070313	-322.8581848144532	125.0585708618164	-993.6201782226565	-135.1214752197266	857.2532348632815	-816.2788696289065	-68.76406860351564	850.859069824219	-823.9864501953127	-48.34288406372072	876.2014160156252	-832.9722900390627	-29.17688941955567	778.325622558594	-831.7377929687502	10.86327075958252	727.5472412109376	-832.8386840820315	33.02444076538087	725.5855102539064	-960.9993896484377	119.3150863647461	630.7839965820314	-852.7349853515627	102.0948028564453	532.8648071289064	-814.5714111328127	139.714584350586	547.6387939453126	-838.6080322265627	160.7782287597657	509.5357666015626	-878.9622192382815	190.2290802001953	319.4919738769532	-831.4754028320315	204.0994567871094	335.8990173339844	-920.805847167969	158.8104248046875	245.5287475585938	-883.4757080078127	351.6938171386719	369.3504638671876	-884.3869628906252	348.8047180175782	369.6266174316407	-845.6456298828127	344.9529724121094	342.9404602050782	-797.396423339844	
2689	13.44	-283.4795532226563	1853.082397460938	-1068.4384765625	-421.0859985351564	1742.5419921875	-1138.815307617188	-428.0452270507814	1737.111083984375	-992.4897460937502	-465.0149536132814	1598.768920898438	-1076.444091796875	-474.1893310546876	1263.980224609375	-1050.468017578125	-301.0346984863282	1552.084228515625	-1067.875854492188	-314.5397949218751	1586.297485351563	-1240.084594726563	-138.6851654052735	1532.93115234375	-1330.89892578125	-111.7590713500977	1563.077026367188	-1302.352783203125	-69.25933837890626	1528.4365234375	-1330.88134765625	-5.332112312316895	1536.355102539063	-1322.124877929688	-3.296602487564088	1466.151245117188	-1290.932006835938	278.0381469726563	1560.2490234375	-1183.810424804688	289.9479370117188	1565.911865234375	-1262.11767578125	379.6159362792969	1584.433715820313	-1187.779663085938	-313.0339355468751	1590.867309570313	-906.3815917968752	-153.1399993896485	1545.1328125	-804.9678955078127	-126.9987030029297	1571.56298828125	-837.6579589843752	-83.08202362060548	1543.158447265625	-805.614929199219	-17.49693489074707	1546.74169921875	-818.181823730469	-17.29730796813965	1473.295043945313	-845.5766601562502	nan	nan	nan	276.2799682617188	1569.400390625	-859.340759277344	359.6776733398438	1574.7314453125	-942.1193847656252	-273.5977172851563	1064.81640625	-1159.023681640625	-296.2530212402344	1111.568359375	-884.9272460937502	-480.5230102539064	1151.041015625	-1035.1767578125	-484.274139404297	1120.1025390625	-1061.30859375	-491.9417114257814	1120.156616210938	-1006.644653320313	-327.2452392578126	845.3987426757815	-1192.708618164063	-295.5190429687501	768.3146972656252	-1185.230102539063	-246.2114257812501	772.893737792969	-1183.906616210938	-319.8485107421876	717.2469482421876	-1164.16796875	-286.4514160156251	570.9563598632814	-1133.529174804688	-273.6942138671876	559.0776367187501	-1000.418395996094	-265.8701477050782	351.2048339843751	-1045.881958007813	-296.5598144531251	302.9261474609376	-1114.770263671875	-266.8612670898438	300.8723144531251	-1077.81591796875	-281.5800476074219	225.4902801513672	-1041.655517578125	-349.8919677734376	109.7514190673828	-1077.54345703125	-406.6810302734376	80.18502807617189	-1024.431274414063	-195.5513610839844	54.31930923461915	-1009.330383300781	-191.9717102050782	58.7019386291504	-1051.952758789063	-322.8489685058594	125.1013259887696	-993.658874511719	-136.0323638916016	855.6704101562502	-816.4687500000002	-69.49519348144533	849.2503662109377	-823.9321289062502	-49.12229537963869	874.0134277343752	-833.2934570312502	-30.40755462646485	776.0863037109377	-831.8884277343752	9.43025588989258	725.2009887695314	-832.8638916015627	31.40896797180176	722.7166137695314	-961.083190917969	116.7301635742188	627.4038085937501	-852.9631347656252	98.84148406982425	529.5282592773439	-814.3662719726565	136.7139587402344	544.4273681640626	-838.7495117187502	157.2816314697266	506.010711669922	-879.0796508789065	185.1932220458985	315.7427673339844	-831.3233032226565	198.0539245605469	331.8848571777344	-920.780212402344	153.064453125	241.7903747558594	-883.0360107421877	346.8765258789063	363.7821044921876	-884.6665039062502	344.2148742675782	364.7432861328126	-845.9826660156252	340.2442016601563	337.9577026367188	-797.8150024414065	
2690	13.445	-283.4365234375001	1853.106567382813	-1068.408203125	-421.230438232422	1742.35009765625	-1138.698364257813	-428.0420837402345	1737.112182617188	-992.3753662109377	-465.0400695800782	1598.785400390625	-1076.295654296875	-474.031707763672	1264.053466796875	-1050.30517578125	-301.0370483398438	1552.104614257813	-1067.849243164063	-314.5627441406251	1586.274291992188	-1240.031494140625	-138.6938934326172	1532.80078125	-1330.84228515625	-111.8580093383789	1563.04638671875	-1302.380981445313	-69.53145599365236	1528.359008789063	-1330.81787109375	-5.387225151062013	1536.3046875	-1322.089477539063	-3.325238466262818	1466.027954101563	-1290.89990234375	278.0280151367188	1560.159057617188	-1183.958618164063	289.9864807128907	1565.702758789063	-1262.03369140625	379.6442260742188	1584.291625976563	-1187.6533203125	-312.7087097167969	1590.793212890625	-906.220886230469	-153.1001892089844	1545.138671875	-804.7884521484377	-126.9209747314453	1571.580688476563	-837.404235839844	-83.07112121582033	1543.055297851563	-805.5406494140627	-17.40696907043457	1546.728759765625	-818.0292968750002	-17.32070922851563	1473.164306640625	-845.4259033203127	nan	nan	nan	276.2897338867188	1569.258544921875	-859.1975708007815	359.7543029785157	1574.435180664063	-941.8777465820315	-273.4792480468751	1064.775390625	-1158.873291015625	-295.7997436523438	1111.568603515625	-884.6944580078127	-480.4105224609376	1151.077514648438	-1034.95263671875	-484.1428222656251	1120.095092773438	-1061.075927734375	-491.7657775878907	1120.216552734375	-1006.36279296875	-327.2348937988282	845.3918457031252	-1192.596069335938	-295.5832519531251	768.370788574219	-1185.20263671875	-246.2535247802735	772.8997802734377	-1183.927612304688	-319.7917480468751	717.1904296875001	-1164.066650390625	-286.4294128417969	570.9468383789064	-1133.527587890625	-273.4785461425782	559.0586547851564	-1000.495178222656	-265.7279357910157	351.2337341308594	-1045.9228515625	-296.7059936523438	302.7619934082032	-1114.764892578125	-266.8675842285157	300.8646850585938	-1077.915649414063	-281.5346069335938	225.4267120361329	-1041.75390625	-349.9621582031251	109.5866622924805	-1077.540771484375	-406.681121826172	80.18972778320314	-1024.4130859375	-195.4434356689454	54.54262161254884	-1009.335021972656	-192.0193634033204	58.44917297363283	-1051.936401367188	-322.7963562011719	125.1236801147461	-993.6776123046877	-136.699203491211	854.410583496094	-816.589050292969	-70.3596878051758	847.239440917969	-824.0557250976565	-49.82620239257814	872.209411621094	-833.568542480469	-31.74952697753907	773.9578247070315	-831.9526367187502	7.655164241790773	722.7246704101564	-833.077087402344	28.98259925842286	719.7653808593751	-961.2269287109377	114.202018737793	624.3337402343751	-852.9968261718752	95.70600891113283	526.9285278320314	-814.554870605469	133.6205749511719	540.9667358398439	-838.6181640625002	153.6255798339844	502.1912536621095	-879.1038208007815	180.095199584961	311.8423461914063	-831.1657714843752	192.9695587158204	327.7447204589844	-920.482604980469	147.1201629638672	238.3160095214844	-882.242370605469	340.9697265625001	357.1831665039063	-885.0381469726565	339.1057128906251	359.5226440429688	-846.5714111328127	335.3576354980469	332.9171142578126	-798.0725097656252	
2691	13.45	-283.3699951171876	1852.941040039063	-1068.350952148438	-421.1905212402345	1742.119506835938	-1138.605590820313	-428.0433349609376	1737.161376953125	-992.317321777344	-465.1743774414064	1598.768798828125	-1076.254638671875	-473.8189392089845	1264.117065429688	-1050.114013671875	-301.0863342285157	1552.10546875	-1067.7666015625	-314.6579589843751	1586.2177734375	-1239.99169921875	-138.7968902587891	1532.7470703125	-1330.807861328125	-111.9523315429688	1562.9521484375	-1302.323364257813	-69.8584442138672	1528.310546875	-1330.818969726563	-5.4413161277771	1536.227172851563	-1322.060791015625	-3.445144653320313	1465.943603515625	-1290.862548828125	278.0128479003907	1559.966552734375	-1183.894653320313	289.9346313476563	1565.594116210938	-1262.078369140625	379.4967346191407	1584.077026367188	-1187.694091796875	-312.8852844238282	1590.905151367188	-906.2341918945315	-152.9983825683594	1545.1357421875	-804.4792480468752	-126.8920593261719	1571.51513671875	-837.2723388671877	-83.04553222656251	1543.023803710938	-805.460388183594	-17.36517906188965	1546.638916015625	-817.8399047851565	-17.37230491638184	1472.976318359375	-845.245056152344	nan	nan	nan	276.2126464843751	1568.904907226563	-859.0354614257815	359.8243103027344	1574.264038085938	-941.6548461914065	-273.3545227050782	1064.67724609375	-1158.698974609375	-295.4446105957032	1111.551391601563	-884.4235839843752	-480.3118896484376	1151.096557617188	-1034.737060546875	-484.058807373047	1120.055053710938	-1060.844848632813	-491.7008666992189	1120.135620117188	-1006.145141601563	-327.3086853027344	845.3903808593752	-1192.492553710938	-295.6394653320313	768.3013305664065	-1185.174560546875	-246.2438049316407	772.858581542969	-1184.060668945313	-319.9838562011719	717.2211914062501	-1164.068725585938	-286.4312438964844	570.8554687500001	-1133.565185546875	-273.1217041015626	559.1133422851564	-1000.549438476563	-265.6797485351563	351.1443786621094	-1046.078125	-296.8717346191407	302.2761535644532	-1114.488647460938	-266.9092102050782	300.8891601562501	-1077.985595703125	-281.4548034667969	225.2518615722657	-1041.818481445313	-349.9446411132813	109.6117630004883	-1077.487182617188	-406.6647949218751	80.16936492919923	-1024.434692382813	-195.4431610107422	54.52058029174806	-1009.341064453125	-191.97314453125	58.3801956176758	-1051.899291992188	-322.7993469238282	125.0926589965821	-993.706481933594	-137.3932495117188	853.1213989257815	-816.6043090820315	-71.23308563232423	845.410827636719	-824.272155761719	-50.39458465576173	870.2211914062502	-833.6763916015627	-33.09085845947266	771.9439697265627	-832.0526123046877	5.933902263641358	720.2611694335939	-833.1959228515627	27.26553344726563	717.3172607421876	-961.493347167969	111.1650619506836	620.3745117187501	-853.8101806640627	92.48426818847658	523.8200683593751	-814.4326171875002	130.1968383789063	537.4802856445314	-838.6638793945315	150.0858306884766	498.4940490722657	-879.2374267578127	174.7811431884766	307.9636535644532	-830.9523925781252	188.4456176757813	323.5907897949219	-920.4412841796877	141.2419891357422	234.5854949951172	-881.9332275390627	336.6737365722657	353.0044250488282	-885.4863281250002	334.2136230468751	354.2989807128907	-846.8641357421877	330.3562622070313	327.9048156738282	-798.411560058594	
